<?xml version="1.0" standalone="no"?>
<!DOCTYPE svg PUBLIC "-//W3C//DTD SVG 20010904//EN"
 "http://www.w3.org/TR/2001/REC-SVG-20010904/DTD/svg10.dtd">
<svg version="1.0" xmlns="http://www.w3.org/2000/svg"
 width="260.000000pt" height="260.000000pt" viewBox="0 0 260.000000 260.000000"
 preserveAspectRatio="xMidYMid meet">
<metadata>
Created by potrace 1.14, written by Peter Selinger 2001-2017
</metadata>
<g transform="translate(0.000000,260.000000) scale(0.100000,-0.100000)"
fill="#000000" stroke="none">
<path d="M200 1805 c0 -9 9 -15 21 -15 12 0 39 -10 60 -22 41 -23 56 -49 196
-348 76 -160 113 -240 178 -375 34 -71 64 -136 66 -143 10 -31 40 24 114 208
42 107 86 213 97 234 13 26 16 42 9 48 -6 4 -9 5 -6 2 2 -4 -3 -19 -13 -33
-10 -14 -24 -38 -31 -53 -16 -31 -48 -68 -59 -68 -21 0 -55 37 -76 83 -13 29
-52 111 -86 182 -34 72 -82 172 -106 223 l-44 92 -160 0 c-136 0 -160 -2 -160
-15z"/>
<path d="M1020 1799 c0 -11 4 -18 10 -14 5 3 17 -7 27 -21 16 -25 18 -61 18
-412 l0 -384 -27 -22 c-16 -12 -28 -24 -28 -28 0 -3 59 -5 130 -5 120 1 147 6
120 22 -6 4 -8 10 -5 15 3 5 2 11 -2 13 -5 3 -8 85 -8 184 l0 178 155 0 155 0
1 -175 c0 -151 -2 -179 -18 -206 l-18 -31 135 0 c74 0 135 3 135 6 0 3 -12 15
-27 27 l-27 21 -1 364 c0 200 3 380 7 399 4 19 16 42 28 52 40 33 25 38 -115
38 l-136 0 18 -32 c14 -28 17 -64 18 -226 0 -106 -2 -196 -5 -200 -7 -10 -293
-10 -300 0 -3 4 -5 95 -5 201 1 163 4 198 17 219 10 14 14 28 11 32 -4 3 -64
6 -135 6 -123 0 -128 -1 -128 -21z"/>
<path d="M2030 1805 c0 -9 10 -15 26 -15 27 0 78 -33 67 -44 -3 -3 -2 -6 4 -6
35 0 -51 -177 -117 -240 -3 -3 -28 -32 -55 -65 -28 -33 -53 -62 -56 -65 -3 -3
-12 -16 -21 -28 -16 -23 -14 -27 63 -135 171 -240 210 -281 279 -294 56 -10
260 -7 272 5 9 9 5 12 -20 13 -41 2 -41 2 -85 23 -20 10 -47 31 -60 46 -45 55
-68 86 -118 155 -28 38 -56 73 -62 77 -7 4 -7 8 -2 8 6 0 6 3 -1 8 -6 4 -30
34 -55 67 -52 71 -60 81 -76 100 -10 11 -4 24 32 72 24 32 75 90 112 129 118
123 195 174 263 174 20 0 30 5 30 15 0 13 -30 15 -210 15 -180 0 -210 -2 -210
-15z"/>
<path d="M349 1302 c-3 -40 -6 -82 -8 -84 -1 -2 -3 -24 -5 -50 -9 -122 -75
-218 -160 -235 -24 -4 -31 -11 -23 -19 5 -5 284 -9 370 -5 28 1 20 19 -13 26
-16 3 -41 15 -55 27 -29 23 -67 91 -70 128 -2 14 -6 32 -9 41 -4 9 -8 53 -10
97 -1 45 -5 84 -9 88 -4 4 -8 -2 -8 -14z"/>
</g>
</svg>
